<?xml version="1.0" encoding="UTF-8" standalone="no"?><svg xmlns="http://www.w3.org/2000/svg" xmlns:xlink="http://www.w3.org/1999/xlink" contentScriptType="application/ecmascript" contentStyleType="text/css" height="669px" preserveAspectRatio="none" style="width:410px;height:669px;" version="1.1" viewBox="0 0 410 669" width="410px" zoomAndPan="magnify"><defs><filter height="300%" id="f1bdstva34fvi1" width="300%" x="-1" y="-1"><feGaussianBlur result="blurOut" stdDeviation="2.0"/><feColorMatrix in="blurOut" result="blurOut2" type="matrix" values="0 0 0 0 0 0 0 0 0 0 0 0 0 0 0 0 0 0 .4 0"/><feOffset dx="4.0" dy="4.0" in="blurOut2" result="blurOut3"/><feBlend in="SourceGraphic" in2="blurOut3" mode="normal"/></filter></defs><g><ellipse cx="188.5" cy="18" fill="#000000" filter="url(#f1bdstva34fvi1)" rx="10" ry="10" style="stroke: none; stroke-width: 1.0;"/><rect fill="#FEFECE" filter="url(#f1bdstva34fvi1)" height="50" rx="12.5" ry="12.5" style="stroke: #A80036; stroke-width: 1.5;" width="102" x="137.5" y="88"/><line style="stroke: #A80036; stroke-width: 1.5;" x1="137.5" x2="239.5" y1="114.2969" y2="114.2969"/><text fill="#000000" font-family="sans-serif" font-size="14" lengthAdjust="spacingAndGlyphs" textLength="82" x="147.5" y="105.9951">FromBorder</text><rect fill="#FEFECE" filter="url(#f1bdstva34fvi1)" height="50" rx="12.5" ry="12.5" style="stroke: #A80036; stroke-width: 1.5;" width="52" x="90.5" y="418"/><line style="stroke: #A80036; stroke-width: 1.5;" x1="90.5" x2="142.5" y1="444.2969" y2="444.2969"/><text fill="#000000" font-family="sans-serif" font-size="14" lengthAdjust="spacingAndGlyphs" textLength="32" x="100.5" y="435.9951">Walk</text><rect fill="#FEFECE" filter="url(#f1bdstva34fvi1)" height="50" rx="12.5" ry="12.5" style="stroke: #A80036; stroke-width: 1.5;" width="93" x="70" y="528"/><line style="stroke: #A80036; stroke-width: 1.5;" x1="70" x2="163" y1="554.2969" y2="554.2969"/><text fill="#000000" font-family="sans-serif" font-size="14" lengthAdjust="spacingAndGlyphs" textLength="73" x="80" y="545.9951">ToBuilding</text><ellipse cx="166.5" cy="648" fill="none" filter="url(#f1bdstva34fvi1)" rx="10" ry="10" style="stroke: #000000; stroke-width: 1.0;"/><ellipse cx="167" cy="648.5" fill="#000000" rx="6" ry="6" style="stroke: none; stroke-width: 1.0;"/><rect fill="#FEFECE" filter="url(#f1bdstva34fvi1)" height="50" rx="12.5" ry="12.5" style="stroke: #A80036; stroke-width: 1.5;" width="85" x="174" y="308"/><line style="stroke: #A80036; stroke-width: 1.5;" x1="174" x2="259" y1="334.2969" y2="334.2969"/><text fill="#000000" font-family="sans-serif" font-size="14" lengthAdjust="spacingAndGlyphs" textLength="65" x="184" y="325.9951">ToBorder</text><rect fill="#FEFECE" filter="url(#f1bdstva34fvi1)" height="50" rx="12.5" ry="12.5" style="stroke: #A80036; stroke-width: 1.5;" width="55" x="73" y="198"/><line style="stroke: #A80036; stroke-width: 1.5;" x1="73" x2="128" y1="224.2969" y2="224.2969"/><text fill="#000000" font-family="sans-serif" font-size="14" lengthAdjust="spacingAndGlyphs" textLength="35" x="83" y="215.9951">Drive</text><rect fill="#FEFECE" filter="url(#f1bdstva34fvi1)" height="50" rx="12.5" ry="12.5" style="stroke: #A80036; stroke-width: 1.5;" width="133" x="6" y="308"/><line style="stroke: #A80036; stroke-width: 1.5;" x1="6" x2="139" y1="334.2969" y2="334.2969"/><text fill="#000000" font-family="sans-serif" font-size="14" lengthAdjust="spacingAndGlyphs" textLength="113" x="16" y="325.9951">ParkSomewhere</text><rect fill="#FEFECE" filter="url(#f1bdstva34fvi1)" height="50" rx="12.5" ry="12.5" style="stroke: #A80036; stroke-width: 1.5;" width="50" x="163.5" y="198"/><line style="stroke: #A80036; stroke-width: 1.5;" x1="163.5" x2="213.5" y1="224.2969" y2="224.2969"/><text fill="#000000" font-family="sans-serif" font-size="14" lengthAdjust="spacingAndGlyphs" textLength="30" x="173.5" y="215.9951">Bike</text><rect fill="#FEFECE" filter="url(#f1bdstva34fvi1)" height="50" rx="12.5" ry="12.5" style="stroke: #A80036; stroke-width: 1.5;" width="78" x="248.5" y="198"/><line style="stroke: #A80036; stroke-width: 1.5;" x1="248.5" x2="326.5" y1="224.2969" y2="224.2969"/><text fill="#000000" font-family="sans-serif" font-size="14" lengthAdjust="spacingAndGlyphs" textLength="58" x="258.5" y="215.9951">RideBus</text><rect fill="#FEFECE" filter="url(#f1bdstva34fvi1)" height="50" rx="12.5" ry="12.5" style="stroke: #A80036; stroke-width: 1.5;" width="104" x="294.5" y="308"/><line style="stroke: #A80036; stroke-width: 1.5;" x1="294.5" x2="398.5" y1="334.2969" y2="334.2969"/><text fill="#000000" font-family="sans-serif" font-size="14" lengthAdjust="spacingAndGlyphs" textLength="84" x="304.5" y="325.9951">AlightAtStop</text><!--link *start to FromBorder--><path d="M188.5,28.26 C188.5,40.86 188.5,63.98 188.5,82.74 " fill="none" id="*start-FromBorder" style="stroke: #A80036; stroke-width: 1.0;"/><polygon fill="#A80036" points="188.5,87.91,192.5,78.91,188.5,82.91,184.5,78.91,188.5,87.91" style="stroke: #A80036; stroke-width: 1.0;"/><!--link Walk to ToBuilding--><path d="M116.5,468.24 C116.5,484.36 116.5,505.62 116.5,522.69 " fill="none" id="Walk-ToBuilding" style="stroke: #A80036; stroke-width: 1.0;"/><polygon fill="#A80036" points="116.5,527.84,120.5,518.84,116.5,522.84,112.5,518.84,116.5,527.84" style="stroke: #A80036; stroke-width: 1.0;"/><!--link ToBuilding to *end--><path d="M129.64,578.43 C139.31,596.42 152.06,620.14 159.75,634.45 " fill="none" id="ToBuilding-*end" style="stroke: #A80036; stroke-width: 1.0;"/><polygon fill="#A80036" points="162.15,638.91,161.4145,629.0886,159.7838,634.5054,154.367,632.8746,162.15,638.91" style="stroke: #A80036; stroke-width: 1.0;"/><!--link ToBorder to *end--><path d="M213.35,358.31 C207.57,402.27 194.53,497.86 180.5,578 C177.15,597.13 172.56,619.1 169.57,633.01 " fill="none" id="ToBorder-*end" style="stroke: #A80036; stroke-width: 1.0;"/><polygon fill="#A80036" points="168.47,638.1,174.2781,630.146,169.5245,633.2125,166.458,628.4588,168.47,638.1" style="stroke: #A80036; stroke-width: 1.0;"/><!--link FromBorder to Drive--><path d="M168.75,138.24 C155.39,154.63 137.69,176.36 123.67,193.57 " fill="none" id="FromBorder-Drive" style="stroke: #A80036; stroke-width: 1.0;"/><polygon fill="#A80036" points="120.18,197.84,128.9598,193.3773,123.333,193.9594,122.7509,188.3326,120.18,197.84" style="stroke: #A80036; stroke-width: 1.0;"/><!--link Drive to ToBorder--><path d="M126.53,248.24 C144.29,264.77 167.87,286.72 186.43,304.01 " fill="none" id="Drive-ToBorder" style="stroke: #A80036; stroke-width: 1.0;"/><polygon fill="#A80036" points="190.55,307.84,186.701,298.7744,186.8952,304.4279,181.2417,304.6221,190.55,307.84" style="stroke: #A80036; stroke-width: 1.0;"/><!--link Drive to ParkSomewhere--><path d="M94.22,248.24 C90.04,264.36 84.52,285.62 80.1,302.69 " fill="none" id="Drive-ParkSomewhere" style="stroke: #A80036; stroke-width: 1.0;"/><polygon fill="#A80036" points="78.76,307.84,84.893,300.1338,80.0163,303.0004,77.1497,298.1237,78.76,307.84" style="stroke: #A80036; stroke-width: 1.0;"/><!--link ParkSomewhere to Walk--><path d="M82.37,358.24 C89,374.5 97.75,395.99 104.74,413.13 " fill="none" id="ParkSomewhere-Walk" style="stroke: #A80036; stroke-width: 1.0;"/><polygon fill="#A80036" points="106.66,417.84,106.9687,407.996,104.7735,413.2095,99.56,411.0144,106.66,417.84" style="stroke: #A80036; stroke-width: 1.0;"/><!--link FromBorder to Bike--><path d="M188.5,138.24 C188.5,154.36 188.5,175.62 188.5,192.69 " fill="none" id="FromBorder-Bike" style="stroke: #A80036; stroke-width: 1.0;"/><polygon fill="#A80036" points="188.5,197.84,192.5,188.84,188.5,192.84,184.5,188.84,188.5,197.84" style="stroke: #A80036; stroke-width: 1.0;"/><!--link Bike to ToBorder--><path d="M194.78,248.24 C198.96,264.36 204.48,285.62 208.9,302.69 " fill="none" id="Bike-ToBorder" style="stroke: #A80036; stroke-width: 1.0;"/><polygon fill="#A80036" points="210.24,307.84,211.8503,298.1237,208.9837,303.0004,204.107,300.1338,210.24,307.84" style="stroke: #A80036; stroke-width: 1.0;"/><!--link Bike to ParkSomewhere--><path d="M163.33,247.43 C145.34,264.18 121.06,286.79 102.14,304.41 " fill="none" id="Bike-ParkSomewhere" style="stroke: #A80036; stroke-width: 1.0;"/><polygon fill="#A80036" points="98.42,307.86,107.7283,304.6421,102.0748,304.4479,102.269,298.7944,98.42,307.86" style="stroke: #A80036; stroke-width: 1.0;"/><!--link FromBorder to RideBus--><path d="M210.72,138.24 C225.88,154.77 246,176.72 261.84,194.01 " fill="none" id="FromBorder-RideBus" style="stroke: #A80036; stroke-width: 1.0;"/><polygon fill="#A80036" points="265.36,197.84,262.2369,188.4994,261.9853,194.1507,256.334,193.899,265.36,197.84" style="stroke: #A80036; stroke-width: 1.0;"/><!--link RideBus to ToBorder--><path d="M271.57,248.24 C260.79,264.63 246.51,286.36 235.19,303.57 " fill="none" id="RideBus-ToBorder" style="stroke: #A80036; stroke-width: 1.0;"/><polygon fill="#A80036" points="232.38,307.84,240.6712,302.5244,235.1304,303.6645,233.9904,298.1237,232.38,307.84" style="stroke: #A80036; stroke-width: 1.0;"/><!--link RideBus to AlightAtStop--><path d="M300.74,248.24 C309.62,264.5 321.36,285.99 330.73,303.13 " fill="none" id="RideBus-AlightAtStop" style="stroke: #A80036; stroke-width: 1.0;"/><polygon fill="#A80036" points="333.3,307.84,332.5131,298.0226,330.9108,303.4478,325.4856,301.8454,333.3,307.84" style="stroke: #A80036; stroke-width: 1.0;"/><!--link AlightAtStop to Walk--><path d="M295.17,358.1 C249.94,379.34 185.51,409.6 147.65,427.37 " fill="none" id="AlightAtStop-Walk" style="stroke: #A80036; stroke-width: 1.0;"/><polygon fill="#A80036" points="142.71,429.69,152.5572,429.5071,147.2406,427.5748,149.1728,422.2582,142.71,429.69" style="stroke: #A80036; stroke-width: 1.0;"/></g></svg>