<?xml version="1.0" encoding="UTF-8" standalone="no"?><svg xmlns="http://www.w3.org/2000/svg" xmlns:xlink="http://www.w3.org/1999/xlink" contentScriptType="application/ecmascript" contentStyleType="text/css" height="999px" preserveAspectRatio="none" style="width:412px;height:999px;" version="1.1" viewBox="0 0 412 999" width="412px" zoomAndPan="magnify"><defs><filter height="300%" id="fg0k246f101gf" width="300%" x="-1" y="-1"><feGaussianBlur result="blurOut" stdDeviation="2.0"/><feColorMatrix in="blurOut" result="blurOut2" type="matrix" values="0 0 0 0 0 0 0 0 0 0 0 0 0 0 0 0 0 0 .4 0"/><feOffset dx="4.0" dy="4.0" in="blurOut2" result="blurOut3"/><feBlend in="SourceGraphic" in2="blurOut3" mode="normal"/></filter></defs><g><ellipse cx="206" cy="18" fill="#000000" filter="url(#fg0k246f101gf)" rx="10" ry="10" style="stroke: none; stroke-width: 1.0;"/><rect fill="#FEFECE" filter="url(#fg0k246f101gf)" height="50" rx="12.5" ry="12.5" style="stroke: #A80036; stroke-width: 1.5;" width="110" x="151" y="88"/><line style="stroke: #A80036; stroke-width: 1.5;" x1="151" x2="261" y1="114.2969" y2="114.2969"/><text fill="#000000" font-family="sans-serif" font-size="14" lengthAdjust="spacingAndGlyphs" textLength="90" x="161" y="105.9951">FromBuilding</text><rect fill="#FEFECE" filter="url(#fg0k246f101gf)" height="50" rx="12.5" ry="12.5" style="stroke: #A80036; stroke-width: 1.5;" width="61" x="175.5" y="198"/><line style="stroke: #A80036; stroke-width: 1.5;" x1="175.5" x2="236.5" y1="224.2969" y2="224.2969"/><text fill="#000000" font-family="sans-serif" font-size="14" lengthAdjust="spacingAndGlyphs" textLength="41" x="185.5" y="215.9951">Walk1</text><rect fill="#FEFECE" filter="url(#fg0k246f101gf)" height="50" rx="12.5" ry="12.5" style="stroke: #A80036; stroke-width: 1.5;" width="109" x="151.5" y="308"/><line style="stroke: #A80036; stroke-width: 1.5;" x1="151.5" x2="260.5" y1="334.2969" y2="334.2969"/><text fill="#000000" font-family="sans-serif" font-size="14" lengthAdjust="spacingAndGlyphs" textLength="89" x="161.5" y="325.9951">ToParkedCar</text><rect fill="#FEFECE" filter="url(#fg0k246f101gf)" height="50" rx="12.5" ry="12.5" style="stroke: #A80036; stroke-width: 1.5;" width="55" x="178.5" y="528"/><line style="stroke: #A80036; stroke-width: 1.5;" x1="178.5" x2="233.5" y1="554.2969" y2="554.2969"/><text fill="#000000" font-family="sans-serif" font-size="14" lengthAdjust="spacingAndGlyphs" textLength="35" x="188.5" y="545.9951">Drive</text><rect fill="#FEFECE" filter="url(#fg0k246f101gf)" height="50" rx="12.5" ry="12.5" style="stroke: #A80036; stroke-width: 1.5;" width="85" x="147.5" y="638"/><line style="stroke: #A80036; stroke-width: 1.5;" x1="147.5" x2="232.5" y1="664.2969" y2="664.2969"/><text fill="#000000" font-family="sans-serif" font-size="14" lengthAdjust="spacingAndGlyphs" textLength="65" x="157.5" y="655.9951">ToBorder</text><rect fill="#FEFECE" filter="url(#fg0k246f101gf)" height="50" rx="12.5" ry="12.5" style="stroke: #A80036; stroke-width: 1.5;" width="133" x="267.5" y="638"/><line style="stroke: #A80036; stroke-width: 1.5;" x1="267.5" x2="400.5" y1="664.2969" y2="664.2969"/><text fill="#000000" font-family="sans-serif" font-size="14" lengthAdjust="spacingAndGlyphs" textLength="113" x="277.5" y="655.9951">ParkSomewhere</text><rect fill="#FEFECE" filter="url(#fg0k246f101gf)" height="50" rx="12.5" ry="12.5" style="stroke: #A80036; stroke-width: 1.5;" width="61" x="259.5" y="748"/><line style="stroke: #A80036; stroke-width: 1.5;" x1="259.5" x2="320.5" y1="774.2969" y2="774.2969"/><text fill="#000000" font-family="sans-serif" font-size="14" lengthAdjust="spacingAndGlyphs" textLength="41" x="269.5" y="765.9951">Walk2</text><rect fill="#FEFECE" filter="url(#fg0k246f101gf)" height="50" rx="12.5" ry="12.5" style="stroke: #A80036; stroke-width: 1.5;" width="93" x="243.5" y="858"/><line style="stroke: #A80036; stroke-width: 1.5;" x1="243.5" x2="336.5" y1="884.2969" y2="884.2969"/><text fill="#000000" font-family="sans-serif" font-size="14" lengthAdjust="spacingAndGlyphs" textLength="73" x="253.5" y="875.9951">ToBuilding</text><rect fill="#FEFECE" filter="url(#fg0k246f101gf)" height="50" rx="12.5" ry="12.5" style="stroke: #A80036; stroke-width: 1.5;" width="68" x="296" y="308"/><line style="stroke: #A80036; stroke-width: 1.5;" x1="296" x2="364" y1="334.2969" y2="334.2969"/><text fill="#000000" font-family="sans-serif" font-size="14" lengthAdjust="spacingAndGlyphs" textLength="48" x="306" y="325.9951">ToBike</text><rect fill="#FEFECE" filter="url(#fg0k246f101gf)" height="50" rx="12.5" ry="12.5" style="stroke: #A80036; stroke-width: 1.5;" width="50" x="305" y="528"/><line style="stroke: #A80036; stroke-width: 1.5;" x1="305" x2="355" y1="554.2969" y2="554.2969"/><text fill="#000000" font-family="sans-serif" font-size="14" lengthAdjust="spacingAndGlyphs" textLength="30" x="315" y="545.9951">Bike</text><rect fill="#FEFECE" filter="url(#fg0k246f101gf)" height="50" rx="12.5" ry="12.5" style="stroke: #A80036; stroke-width: 1.5;" width="106" x="10" y="308"/><line style="stroke: #A80036; stroke-width: 1.5;" x1="10" x2="116" y1="334.2969" y2="334.2969"/><text fill="#000000" font-family="sans-serif" font-size="14" lengthAdjust="spacingAndGlyphs" textLength="86" x="20" y="325.9951">ToBusStop1</text><rect fill="#FEFECE" filter="url(#fg0k246f101gf)" height="50" rx="12.5" ry="12.5" style="stroke: #A80036; stroke-width: 1.5;" width="98" x="14" y="418"/><line style="stroke: #A80036; stroke-width: 1.5;" x1="14" x2="112" y1="444.2969" y2="444.2969"/><text fill="#000000" font-family="sans-serif" font-size="14" lengthAdjust="spacingAndGlyphs" textLength="78" x="24" y="435.9951">WaitForBus</text><rect fill="#FEFECE" filter="url(#fg0k246f101gf)" height="50" rx="12.5" ry="12.5" style="stroke: #A80036; stroke-width: 1.5;" width="78" x="24" y="528"/><line style="stroke: #A80036; stroke-width: 1.5;" x1="24" x2="102" y1="554.2969" y2="554.2969"/><text fill="#000000" font-family="sans-serif" font-size="14" lengthAdjust="spacingAndGlyphs" textLength="58" x="34" y="545.9951">RideBus</text><rect fill="#FEFECE" filter="url(#fg0k246f101gf)" height="50" rx="12.5" ry="12.5" style="stroke: #A80036; stroke-width: 1.5;" width="106" x="6" y="638"/><line style="stroke: #A80036; stroke-width: 1.5;" x1="6" x2="112" y1="664.2969" y2="664.2969"/><text fill="#000000" font-family="sans-serif" font-size="14" lengthAdjust="spacingAndGlyphs" textLength="86" x="16" y="655.9951">ToBusStop2</text><ellipse cx="240" cy="978" fill="none" filter="url(#fg0k246f101gf)" rx="10" ry="10" style="stroke: #000000; stroke-width: 1.0;"/><ellipse cx="240.5" cy="978.5" fill="#000000" rx="6" ry="6" style="stroke: none; stroke-width: 1.0;"/><!--link *start to FromBuilding--><path d="M206,28.26 C206,40.86 206,63.98 206,82.74 " fill="none" id="*start-FromBuilding" style="stroke: #A80036; stroke-width: 1.0;"/><polygon fill="#A80036" points="206,87.91,210,78.91,206,82.91,202,78.91,206,87.91" style="stroke: #A80036; stroke-width: 1.0;"/><!--link FromBuilding to Walk1--><path d="M206,138.24 C206,154.36 206,175.62 206,192.69 " fill="none" id="FromBuilding-Walk1" style="stroke: #A80036; stroke-width: 1.0;"/><polygon fill="#A80036" points="206,197.84,210,188.84,206,192.84,202,188.84,206,197.84" style="stroke: #A80036; stroke-width: 1.0;"/><!--link Walk1 to ToParkedCar--><path d="M206,248.24 C206,264.36 206,285.62 206,302.69 " fill="none" id="Walk1-ToParkedCar" style="stroke: #A80036; stroke-width: 1.0;"/><polygon fill="#A80036" points="206,307.84,210,298.84,206,302.84,202,298.84,206,307.84" style="stroke: #A80036; stroke-width: 1.0;"/><!--link ToParkedCar to Drive--><path d="M206,358.16 C206,398.43 206,479.12 206,522.61 " fill="none" id="ToParkedCar-Drive" style="stroke: #A80036; stroke-width: 1.0;"/><polygon fill="#A80036" points="206,527.73,210,518.73,206,522.73,202,518.73,206,527.73" style="stroke: #A80036; stroke-width: 1.0;"/><!--link Drive to ToBorder--><path d="M202.41,578.24 C200.02,594.36 196.87,615.62 194.34,632.69 " fill="none" id="Drive-ToBorder" style="stroke: #A80036; stroke-width: 1.0;"/><polygon fill="#A80036" points="193.58,637.84,198.8497,629.5195,194.3091,632.8934,190.9352,628.3529,193.58,637.84" style="stroke: #A80036; stroke-width: 1.0;"/><!--link Drive to ParkSomewhere--><path d="M233.77,577.43 C253.71,594.25 280.64,616.97 301.56,634.63 " fill="none" id="Drive-ParkSomewhere" style="stroke: #A80036; stroke-width: 1.0;"/><polygon fill="#A80036" points="305.39,637.86,301.0884,629.0002,301.5677,634.6367,295.9311,635.1159,305.39,637.86" style="stroke: #A80036; stroke-width: 1.0;"/><!--link ParkSomewhere to Walk2--><path d="M324.13,688.24 C317.5,704.5 308.75,725.99 301.76,743.13 " fill="none" id="ParkSomewhere-Walk2" style="stroke: #A80036; stroke-width: 1.0;"/><polygon fill="#A80036" points="299.84,747.84,306.94,741.0144,301.7265,743.2095,299.5313,737.996,299.84,747.84" style="stroke: #A80036; stroke-width: 1.0;"/><!--link Walk2 to ToBuilding--><path d="M290,798.24 C290,814.36 290,835.62 290,852.69 " fill="none" id="Walk2-ToBuilding" style="stroke: #A80036; stroke-width: 1.0;"/><polygon fill="#A80036" points="290,857.84,294,848.84,290,852.84,286,848.84,290,857.84" style="stroke: #A80036; stroke-width: 1.0;"/><!--link Walk1 to ToBike--><path d="M233.83,248.24 C252.97,264.91 278.44,287.09 298.36,304.44 " fill="none" id="Walk1-ToBike" style="stroke: #A80036; stroke-width: 1.0;"/><polygon fill="#A80036" points="302.26,307.84,298.0824,298.9211,298.483,304.5637,292.8403,304.9643,302.26,307.84" style="stroke: #A80036; stroke-width: 1.0;"/><!--link ToBike to Bike--><path d="M330,358.16 C330,398.43 330,479.12 330,522.61 " fill="none" id="ToBike-Bike" style="stroke: #A80036; stroke-width: 1.0;"/><polygon fill="#A80036" points="330,527.73,334,518.73,330,522.73,326,518.73,330,527.73" style="stroke: #A80036; stroke-width: 1.0;"/><!--link Bike to ToBorder--><path d="M304.97,573.31 C282.81,590.4 250.24,615.53 225.41,634.68 " fill="none" id="Bike-ToBorder" style="stroke: #A80036; stroke-width: 1.0;"/><polygon fill="#A80036" points="221.18,637.95,230.7476,635.6131,225.1367,634.8932,225.8567,629.2823,221.18,637.95" style="stroke: #A80036; stroke-width: 1.0;"/><!--link Bike to ParkSomewhere--><path d="M330.9,578.24 C331.49,594.36 332.28,615.62 332.91,632.69 " fill="none" id="Bike-ParkSomewhere" style="stroke: #A80036; stroke-width: 1.0;"/><polygon fill="#A80036" points="333.11,637.84,336.7732,628.6977,332.9244,632.8434,328.7787,628.9947,333.11,637.84" style="stroke: #A80036; stroke-width: 1.0;"/><!--link Walk1 to ToBusStop1--><path d="M175.32,247.17 C152.98,264.04 122.64,286.96 99.12,304.72 " fill="none" id="Walk1-ToBusStop1" style="stroke: #A80036; stroke-width: 1.0;"/><polygon fill="#A80036" points="95.11,307.75,104.7011,305.5116,99.098,304.734,99.8755,299.1309,95.11,307.75" style="stroke: #A80036; stroke-width: 1.0;"/><!--link ToBusStop1 to WaitForBus--><path d="M63,358.24 C63,374.36 63,395.62 63,412.69 " fill="none" id="ToBusStop1-WaitForBus" style="stroke: #A80036; stroke-width: 1.0;"/><polygon fill="#A80036" points="63,417.84,67,408.84,63,412.84,59,408.84,63,417.84" style="stroke: #A80036; stroke-width: 1.0;"/><!--link WaitForBus to RideBus--><path d="M63,468.24 C63,484.36 63,505.62 63,522.69 " fill="none" id="WaitForBus-RideBus" style="stroke: #A80036; stroke-width: 1.0;"/><polygon fill="#A80036" points="63,527.84,67,518.84,63,522.84,59,518.84,63,527.84" style="stroke: #A80036; stroke-width: 1.0;"/><!--link RideBus to ToBorder--><path d="M91.5,578.24 C111.11,594.91 137.19,617.09 157.59,634.44 " fill="none" id="RideBus-ToBorder" style="stroke: #A80036; stroke-width: 1.0;"/><polygon fill="#A80036" points="161.59,637.84,157.3241,628.9629,157.7807,634.6013,152.1423,635.0579,161.59,637.84" style="stroke: #A80036; stroke-width: 1.0;"/><!--link RideBus to ToBusStop2--><path d="M62.1,578.24 C61.51,594.36 60.72,615.62 60.09,632.69 " fill="none" id="RideBus-ToBusStop2" style="stroke: #A80036; stroke-width: 1.0;"/><polygon fill="#A80036" points="59.89,637.84,64.2213,628.9947,60.0756,632.8434,56.2268,628.6977,59.89,637.84" style="stroke: #A80036; stroke-width: 1.0;"/><!--link ToBusStop2 to Walk2--><path d="M110.55,688.1 C154.51,708.65 216.51,737.64 254.93,755.6 " fill="none" id="ToBusStop2-Walk2" style="stroke: #A80036; stroke-width: 1.0;"/><polygon fill="#A80036" points="259.49,757.74,253.0272,750.3082,254.9594,755.6248,249.6428,757.5571,259.49,757.74" style="stroke: #A80036; stroke-width: 1.0;"/><!--link ToBuilding to *end--><path d="M276.86,908.43 C267.19,926.42 254.44,950.14 246.75,964.45 " fill="none" id="ToBuilding-*end" style="stroke: #A80036; stroke-width: 1.0;"/><polygon fill="#A80036" points="244.35,968.91,252.133,962.8746,246.7162,964.5054,245.0855,959.0886,244.35,968.91" style="stroke: #A80036; stroke-width: 1.0;"/><!--link ToBorder to *end--><path d="M193.15,688.31 C198.93,732.27 211.97,827.86 226,908 C229.35,927.13 233.94,949.1 236.93,963.01 " fill="none" id="ToBorder-*end" style="stroke: #A80036; stroke-width: 1.0;"/><polygon fill="#A80036" points="238.03,968.1,240.042,958.4588,236.9755,963.2125,232.2219,960.146,238.03,968.1" style="stroke: #A80036; stroke-width: 1.0;"/></g></svg>