<?xml version="1.0" encoding="UTF-8" standalone="no"?><svg xmlns="http://www.w3.org/2000/svg" xmlns:xlink="http://www.w3.org/1999/xlink" contentScriptType="application/ecmascript" contentStyleType="text/css" height="449px" preserveAspectRatio="none" style="width:265px;height:449px;" version="1.1" viewBox="0 0 265 449" width="265px" zoomAndPan="magnify"><defs><filter height="300%" id="f1db2gwh0mhrx0" width="300%" x="-1" y="-1"><feGaussianBlur result="blurOut" stdDeviation="2.0"/><feColorMatrix in="blurOut" result="blurOut2" type="matrix" values="0 0 0 0 0 0 0 0 0 0 0 0 0 0 0 0 0 0 .4 0"/><feOffset dx="4.0" dy="4.0" in="blurOut2" result="blurOut3"/><feBlend in="SourceGraphic" in2="blurOut3" mode="normal"/></filter></defs><g><ellipse cx="131" cy="18" fill="#000000" filter="url(#f1db2gwh0mhrx0)" rx="10" ry="10" style="stroke: none; stroke-width: 1.0;"/><rect fill="#FEFECE" filter="url(#f1db2gwh0mhrx0)" height="50" rx="12.5" ry="12.5" style="stroke: #A80036; stroke-width: 1.5;" width="110" x="6" y="88"/><line style="stroke: #A80036; stroke-width: 1.5;" x1="6" x2="116" y1="114.2969" y2="114.2969"/><text fill="#000000" font-family="sans-serif" font-size="14" lengthAdjust="spacingAndGlyphs" textLength="90" x="16" y="105.9951">FromBuilding</text><rect fill="#FEFECE" filter="url(#f1db2gwh0mhrx0)" height="50" rx="12.5" ry="12.5" style="stroke: #A80036; stroke-width: 1.5;" width="102" x="151" y="88"/><line style="stroke: #A80036; stroke-width: 1.5;" x1="151" x2="253" y1="114.2969" y2="114.2969"/><text fill="#000000" font-family="sans-serif" font-size="14" lengthAdjust="spacingAndGlyphs" textLength="82" x="161" y="105.9951">FromBorder</text><rect fill="#FEFECE" filter="url(#f1db2gwh0mhrx0)" height="50" rx="12.5" ry="12.5" style="stroke: #A80036; stroke-width: 1.5;" width="52" x="105" y="198"/><line style="stroke: #A80036; stroke-width: 1.5;" x1="105" x2="157" y1="224.2969" y2="224.2969"/><text fill="#000000" font-family="sans-serif" font-size="14" lengthAdjust="spacingAndGlyphs" textLength="32" x="115" y="215.9951">Walk</text><rect fill="#FEFECE" filter="url(#f1db2gwh0mhrx0)" height="50" rx="12.5" ry="12.5" style="stroke: #A80036; stroke-width: 1.5;" width="93" x="22.5" y="308"/><line style="stroke: #A80036; stroke-width: 1.5;" x1="22.5" x2="115.5" y1="334.2969" y2="334.2969"/><text fill="#000000" font-family="sans-serif" font-size="14" lengthAdjust="spacingAndGlyphs" textLength="73" x="32.5" y="325.9951">ToBuilding</text><rect fill="#FEFECE" filter="url(#f1db2gwh0mhrx0)" height="50" rx="12.5" ry="12.5" style="stroke: #A80036; stroke-width: 1.5;" width="85" x="150.5" y="308"/><line style="stroke: #A80036; stroke-width: 1.5;" x1="150.5" x2="235.5" y1="334.2969" y2="334.2969"/><text fill="#000000" font-family="sans-serif" font-size="14" lengthAdjust="spacingAndGlyphs" textLength="65" x="160.5" y="325.9951">ToBorder</text><ellipse cx="131" cy="428" fill="none" filter="url(#f1db2gwh0mhrx0)" rx="10" ry="10" style="stroke: #000000; stroke-width: 1.0;"/><ellipse cx="131.5" cy="428.5" fill="#000000" rx="6" ry="6" style="stroke: none; stroke-width: 1.0;"/><!--link *start to FromBuilding--><path d="M125.27,26.61 C116.04,38.87 97.42,63.61 82.58,83.32 " fill="none" id="*start-FromBuilding" style="stroke: #A80036; stroke-width: 1.0;"/><polygon fill="#A80036" points="79.29,87.7,87.9091,82.9345,82.306,83.712,81.5284,78.1089,79.29,87.7" style="stroke: #A80036; stroke-width: 1.0;"/><!--link *start to FromBorder--><path d="M136.81,26.61 C146.17,38.87 165.06,63.61 180.11,83.32 " fill="none" id="*start-FromBorder" style="stroke: #A80036; stroke-width: 1.0;"/><polygon fill="#A80036" points="183.45,87.7,181.1898,78.114,180.4249,83.7189,174.82,82.9541,183.45,87.7" style="stroke: #A80036; stroke-width: 1.0;"/><!--link FromBuilding to Walk--><path d="M76.71,138.24 C87.34,154.63 101.42,176.36 112.57,193.57 " fill="none" id="FromBuilding-Walk" style="stroke: #A80036; stroke-width: 1.0;"/><polygon fill="#A80036" points="115.34,197.84,113.7994,188.1124,112.6196,193.6448,107.0871,192.465,115.34,197.84" style="stroke: #A80036; stroke-width: 1.0;"/><!--link FromBorder to Walk--><path d="M186.07,138.24 C175.29,154.63 161.01,176.36 149.69,193.57 " fill="none" id="FromBorder-Walk" style="stroke: #A80036; stroke-width: 1.0;"/><polygon fill="#A80036" points="146.88,197.84,155.1712,192.5244,149.6304,193.6645,148.4904,188.1237,146.88,197.84" style="stroke: #A80036; stroke-width: 1.0;"/><!--link Walk to ToBuilding--><path d="M117.09,248.24 C107.75,264.5 95.41,285.99 85.57,303.13 " fill="none" id="Walk-ToBuilding" style="stroke: #A80036; stroke-width: 1.0;"/><polygon fill="#A80036" points="82.87,307.84,90.8206,302.0273,85.3599,303.5041,83.8831,298.0434,82.87,307.84" style="stroke: #A80036; stroke-width: 1.0;"/><!--link Walk to ToBorder--><path d="M144.91,248.24 C154.25,264.5 166.59,285.99 176.43,303.13 " fill="none" id="Walk-ToBorder" style="stroke: #A80036; stroke-width: 1.0;"/><polygon fill="#A80036" points="179.13,307.84,178.1169,298.0434,176.6401,303.5041,171.1794,302.0273,179.13,307.84" style="stroke: #A80036; stroke-width: 1.0;"/><!--link ToBuilding to *end--><path d="M85.29,358.43 C97.41,376.61 113.44,400.65 122.94,414.9 " fill="none" id="ToBuilding-*end" style="stroke: #A80036; stroke-width: 1.0;"/><polygon fill="#A80036" points="125.89,419.34,124.2413,409.6301,123.1231,415.1754,117.5778,414.0572,125.89,419.34" style="stroke: #A80036; stroke-width: 1.0;"/><!--link ToBorder to *end--><path d="M176.71,358.43 C164.59,376.61 148.56,400.65 139.06,414.9 " fill="none" id="ToBorder-*end" style="stroke: #A80036; stroke-width: 1.0;"/><polygon fill="#A80036" points="136.11,419.34,144.4222,414.0572,138.8769,415.1754,137.7587,409.6301,136.11,419.34" style="stroke: #A80036; stroke-width: 1.0;"/><!--
@startuml

[*] - -> FromBuilding
[*] - -> FromBorder
FromBuilding - -> Walk
FromBorder - -> Walk
Walk - -> ToBuilding
Walk - -> ToBorder
ToBuilding - -> [*]
ToBorder - -> [*]

@enduml

PlantUML version 1.2018.13(Mon Nov 26 09:11:51 PST 2018)
(GPL source distribution)
Java Runtime: OpenJDK Runtime Environment
JVM: OpenJDK 64-Bit Server VM
Java Version: 11.0.11+9-Ubuntu-0ubuntu2.20.04
Operating System: Linux
OS Version: 5.8.0-53-generic
Default Encoding: UTF-8
Language: en
Country: US
--></g></svg>